<svg width="32" height="32" viewBox="0 0 32 32" xmlns="http://www.w3.org/2000/svg">
  <circle cx="16" cy="16" r="15" fill="#61dafb"/>
  <path d="M16 8c-3.3 0-6 2.7-6 6s2.7 6 6 6 6-2.7 6-6-2.7-6-6-6zm0 2c2.2 0 4 1.8 4 4s-1.8 4-4 4-4-1.8-4-4 1.8-4 4-4z" fill="#20232a"/>
  <ellipse cx="16" cy="16" rx="10" ry="4" fill="none" stroke="#20232a" stroke-width="1"/>
  <ellipse cx="16" cy="16" rx="10" ry="4" fill="none" stroke="#20232a" stroke-width="1" transform="rotate(60 16 16)"/>
  <ellipse cx="16" cy="16" rx="10" ry="4" fill="none" stroke="#20232a" stroke-width="1" transform="rotate(120 16 16)"/>
</svg>